<?xml version="1.0" standalone="no"?>
<!DOCTYPE svg PUBLIC "-//W3C//DTD SVG 20010904//EN"
 "http://www.w3.org/TR/2001/REC-SVG-20010904/DTD/svg10.dtd">
<svg version="1.0" xmlns="http://www.w3.org/2000/svg"
 width="190.000000pt" height="190.000000pt" viewBox="0 0 190.000000 190.000000"
 preserveAspectRatio="xMidYMid meet">
<metadata>
Created by potrace 1.14, written by Peter Selinger 2001-2017
</metadata>
<g transform="translate(0.000000,190.000000) scale(0.100000,-0.100000)"
fill="#000000" stroke="none">
<path d="M1289 1803 c-1 -5 -2 -19 -3 -33 -26 -261 -61 -305 -265 -331 -50 -6
-91 -15 -91 -19 0 -4 33 -13 73 -20 39 -8 77 -15 83 -16 6 -1 31 -11 56 -22
82 -36 116 -110 134 -292 3 -36 8 -74 9 -85 2 -11 4 -29 4 -40 2 -33 26 1 27
38 2 46 16 171 20 178 2 3 6 19 8 36 22 123 87 175 259 204 68 11 90 28 40 30
-34 1 -71 6 -138 19 -118 24 -164 87 -180 245 -9 85 -15 115 -26 115 -5 0 -9
-3 -10 -7z"/>
<path d="M314 1163 c57 -112 65 -149 52 -233 -7 -42 -50 -289 -71 -400 -60
-330 -68 -392 -49 -419 15 -21 20 -21 390 -21 206 0 374 4 374 8 0 18 -39 184
-45 190 -3 3 -107 6 -231 6 -223 0 -225 0 -220 20 3 12 12 64 21 116 9 52 21
99 26 105 5 5 94 10 211 10 l203 0 11 53 c7 29 15 75 18 102 6 47 5 50 -16 51
-13 0 -107 1 -209 1 l-186 0 13 71 c6 40 15 90 18 111 4 22 9 42 11 45 3 2 98
5 212 5 l206 1 48 103 48 102 -425 0 -425 0 15 -27z"/>
</g>
</svg>
